{"glyphs":{"0":{"ha":736,"x_min":0,"x_max":0,"o":"m 292 389 b 304 142 292 268 296 185 b 368 76 313 98 334 76 b 432 142 402 76 424 98 b 444 389 440 185 444 268 b 432 636 444 510 440 593 b 368 701 424 680 402 701 b 304 636 334 701 313 680 b 292 389 296 593 292 510 m 35 389 b 368 806 35 667 146 806 b 622 701 485 806 569 771 b 701 389 675 631 701 527 b 615 81 701 256 672 153 b 368 -28 557 8 475 -28 b 35 389 146 -28 35 111 "},"1":{"ha":736,"x_min":0,"x_max":0,"o":"m 89 0 b 67 6 78 0 71 2 b 63 36 64 9 63 19 l 63 100 b 67 133 63 119 64 130 b 97 139 71 137 81 139 l 243 139 b 278 144 263 139 274 141 b 285 171 283 148 285 157 l 285 486 b 276 515 285 501 282 510 b 238 521 271 519 258 521 l 113 521 b 90 526 100 521 93 523 b 86 556 88 530 86 540 l 86 622 b 107 647 86 639 93 647 b 117 647 109 647 112 647 b 129 646 121 646 125 646 l 132 646 b 314 676 208 647 269 657 b 426 794 359 695 397 734 b 430 802 427 795 428 798 b 433 809 431 806 432 809 b 436 813 433 809 434 811 b 442 817 438 816 440 817 b 450 819 444 818 446 818 b 463 819 454 819 458 819 l 496 819 b 524 815 512 819 521 818 b 528 786 526 813 528 803 l 528 200 b 527 181 528 195 528 189 b 526 165 527 173 526 168 b 554 139 526 148 536 139 l 658 139 b 690 134 677 139 688 137 b 694 100 693 131 694 119 l 694 31 b 691 4 694 16 693 7 b 671 0 689 1 682 0 "},"2":{"ha":736,"x_min":0,"x_max":0,"o":"m 708 217 b 647 14 705 128 684 60 b 500 -56 609 -32 560 -56 b 400 -33 462 -56 429 -48 b 321 13 371 -17 345 -2 b 243 35 297 27 271 35 b 161 4 205 35 178 25 b 152 -10 158 1 155 -3 b 141 -24 149 -17 145 -22 b 119 -28 137 -27 130 -28 l 54 -28 b 36 -24 44 -28 38 -27 b 35 -6 34 -22 34 -16 b 56 115 37 40 44 80 b 114 208 69 149 88 181 b 191 278 140 236 166 259 b 294 346 216 297 251 320 b 426 583 382 399 426 478 b 308 719 426 674 387 719 b 240 702 284 719 262 714 b 208 663 219 691 208 677 b 237 644 208 657 218 651 b 294 610 256 638 275 626 b 322 539 313 593 322 569 b 281 442 322 501 308 469 b 188 403 253 416 222 403 b 88 443 150 403 117 416 b 43 550 58 470 43 506 b 138 734 43 625 75 686 b 364 806 200 782 276 806 b 603 744 464 806 544 785 b 692 569 662 703 692 644 b 343 271 692 444 575 345 b 210 201 280 250 236 227 b 179 167 189 181 179 169 b 181 165 179 166 180 165 b 228 185 181 165 197 172 b 306 204 256 198 281 204 b 415 174 344 204 381 194 b 508 143 448 153 480 143 b 614 225 570 143 606 170 b 615 237 615 231 615 235 b 618 242 615 238 616 240 b 624 246 620 245 622 246 l 638 246 l 679 246 l 694 246 b 703 244 697 246 700 245 b 708 238 706 242 707 241 b 708 228 708 236 708 232 l 708 217 "},"3":{"ha":736,"x_min":0,"x_max":0,"o":"m 21 -1 b 60 104 21 41 34 76 b 151 146 86 132 116 146 b 239 119 188 146 217 137 b 272 38 261 102 272 75 b 261 -8 272 20 269 5 b 236 -36 254 -21 245 -31 b 211 -55 227 -42 219 -48 b 200 -75 204 -62 200 -69 b 314 -136 200 -116 238 -136 b 416 -82 359 -136 393 -118 b 450 56 439 -46 450 0 b 315 269 450 182 405 254 b 303 272 312 270 308 271 b 294 273 299 272 296 272 b 288 274 293 273 290 274 b 282 276 285 275 283 275 l 278 280 b 276 285 277 281 276 283 b 274 292 275 287 275 289 b 274 302 274 296 274 299 l 274 315 l 274 343 b 277 369 274 355 275 364 b 283 380 279 375 281 378 b 301 383 285 381 291 382 b 322 386 310 384 318 385 b 389 423 351 392 373 404 b 417 481 405 442 414 461 b 422 557 421 501 422 526 b 399 683 422 616 414 658 b 314 719 383 707 355 719 b 253 703 290 719 269 714 b 228 664 236 692 228 679 b 257 624 228 656 238 642 b 286 561 276 606 286 585 b 254 471 286 522 275 492 b 172 439 233 450 206 439 b 84 476 137 439 108 451 b 49 572 60 500 49 532 b 136 734 49 632 78 686 b 356 806 194 782 268 806 b 582 741 445 806 521 784 b 674 557 643 698 674 637 b 633 431 674 509 660 467 b 513 354 606 394 566 369 b 468 332 483 346 468 338 b 510 304 468 326 482 317 b 652 199 572 276 619 241 b 701 56 685 156 701 108 b 596 -149 701 -23 666 -91 b 328 -236 525 -207 436 -236 b 95 -171 222 -236 145 -214 b 21 -1 46 -127 21 -71 "},"4":{"ha":736,"x_min":0,"x_max":0,"o":"m 715 -171 b 710 -203 715 -188 714 -199 b 682 -208 707 -206 698 -208 l 294 -208 b 256 -203 273 -208 260 -206 b 250 -168 252 -199 250 -187 l 250 -125 b 256 -90 250 -106 252 -94 b 282 -83 259 -85 268 -83 l 338 -83 b 363 -79 351 -83 360 -82 b 368 -61 366 -76 368 -70 l 368 40 b 363 71 368 57 366 67 b 342 76 360 75 353 76 l 57 76 b 39 81 48 76 42 78 b 35 107 36 84 35 93 l 35 147 b 53 214 35 169 41 192 b 159 383 75 259 110 316 b 285 574 208 451 250 514 b 351 736 321 633 343 687 b 353 748 352 739 353 743 b 354 758 354 753 354 756 b 356 765 354 760 355 763 b 359 770 358 768 359 770 b 363 774 359 771 361 772 b 368 776 366 775 367 776 b 376 777 369 776 372 777 b 386 778 380 778 383 778 l 400 778 l 553 778 b 580 775 567 778 576 777 b 586 760 584 773 586 768 b 585 742 586 752 586 746 b 526 603 578 696 559 650 b 421 482 494 556 459 515 b 293 365 383 449 340 410 b 186 249 246 321 210 282 b 175 234 183 244 180 239 b 165 222 170 229 167 225 b 161 213 162 218 161 215 b 200 201 161 205 174 201 l 322 201 b 361 207 344 201 356 203 b 368 236 366 211 368 220 l 368 256 b 369 285 368 268 369 277 b 376 303 370 292 372 298 b 384 314 379 309 382 312 b 400 324 386 316 392 319 b 419 338 408 329 415 334 b 531 463 470 375 507 416 b 536 478 532 467 534 472 b 541 493 538 484 540 489 b 547 503 542 497 544 500 b 559 511 550 507 554 509 b 579 514 564 513 571 514 b 606 508 592 514 601 512 b 613 490 610 505 613 499 b 612 478 613 488 612 484 b 611 463 611 471 611 466 l 611 221 b 615 205 611 213 613 207 b 638 201 618 203 625 201 l 685 201 b 704 198 695 201 701 200 b 708 185 707 196 708 191 l 708 99 b 703 81 708 89 707 83 b 678 76 700 78 692 76 l 640 76 b 615 73 625 76 617 75 b 611 47 612 71 611 62 l 611 -28 b 610 -44 611 -32 611 -38 b 610 -57 610 -50 610 -54 b 617 -78 610 -67 612 -74 b 647 -83 621 -81 631 -83 l 679 -83 b 710 -87 696 -83 706 -85 b 715 -112 713 -90 715 -99 "},"5":{"ha":736,"x_min":0,"x_max":0,"o":"m 35 -1 b 74 107 35 40 48 76 b 172 153 100 138 132 153 b 258 121 210 153 239 142 b 288 38 278 100 288 72 b 271 -19 288 14 282 -5 b 238 -54 260 -34 249 -46 b 221 -79 226 -62 221 -71 b 314 -129 221 -112 252 -129 b 414 -76 356 -129 390 -111 b 450 83 438 -40 450 13 b 424 280 450 178 441 243 b 328 335 407 316 375 335 b 229 308 291 335 258 326 b 213 297 225 306 220 302 b 196 285 206 291 200 288 b 176 277 191 282 185 279 b 147 274 168 275 158 274 l 88 274 b 58 293 68 274 58 280 b 62 313 58 297 59 303 b 65 335 64 323 65 330 l 113 747 b 122 778 114 764 118 774 b 149 785 127 783 136 785 l 315 785 b 374 784 332 785 352 784 b 419 783 397 784 412 783 b 483 790 449 783 470 785 b 521 817 496 794 509 803 b 527 824 522 818 524 820 b 533 831 530 828 532 831 b 538 836 533 832 535 833 b 547 840 541 839 544 840 b 558 842 550 840 554 841 b 574 843 563 843 568 843 l 614 843 b 639 840 627 843 635 842 b 644 828 643 838 644 834 b 644 818 644 826 644 823 b 643 806 643 813 643 809 l 636 688 b 606 599 633 647 623 617 b 502 560 588 581 553 568 b 257 549 451 553 369 549 l 239 549 b 211 544 223 549 214 547 b 204 519 208 542 206 533 l 194 436 b 193 413 194 430 193 422 b 199 400 193 404 195 400 b 206 403 200 400 203 401 b 219 413 209 406 214 409 b 236 421 225 416 231 419 b 372 444 273 437 319 444 b 626 357 491 444 575 415 b 701 111 676 299 701 217 b 599 -137 701 7 667 -75 b 328 -229 530 -198 440 -229 b 115 -160 240 -229 169 -206 b 35 -1 62 -115 35 -62 "},"6":{"ha":736,"x_min":0,"x_max":0,"o":"m 708 319 b 615 78 708 230 677 149 b 374 -28 553 8 473 -28 b 28 486 143 -28 28 144 b 72 746 28 580 43 666 b 205 940 102 825 146 890 b 408 1014 264 989 331 1014 b 602 953 485 1014 550 994 b 681 807 654 913 681 864 b 643 707 681 763 668 729 b 550 674 618 685 587 674 b 464 706 516 674 487 684 b 429 796 441 728 429 758 b 442 843 429 814 434 830 b 469 873 451 856 460 866 b 483 890 479 880 483 886 b 465 917 483 900 477 909 b 408 928 452 924 433 928 b 349 905 385 928 365 920 b 309 839 332 890 319 868 b 288 744 299 810 292 779 b 279 625 284 710 281 670 l 279 613 b 283 593 279 600 281 593 b 290 598 285 593 288 595 b 301 610 293 601 297 605 b 315 621 306 614 311 618 b 411 646 340 638 372 646 b 621 558 493 646 563 616 b 708 319 679 499 708 419 m 278 361 b 278 288 278 329 278 304 b 281 223 279 272 280 250 b 290 160 283 196 285 175 b 306 114 294 145 299 130 b 333 80 313 98 322 87 b 374 69 344 73 358 69 b 421 90 393 69 409 76 b 447 153 433 104 441 125 b 456 229 452 181 455 206 b 458 319 458 252 458 282 b 444 499 458 405 453 464 b 381 550 434 533 413 550 b 278 361 312 550 278 487 "},"7":{"ha":750,"x_min":0,"x_max":0,"o":"m 490 544 b 462 538 486 544 476 542 b 431 532 447 534 437 532 b 322 563 392 532 355 542 b 228 593 288 583 256 593 b 140 535 181 593 151 574 b 138 517 139 530 138 524 b 135 502 137 510 136 505 b 127 494 134 499 131 496 b 108 490 123 491 117 490 l 69 490 b 40 510 50 490 40 497 b 43 539 40 514 41 524 b 108 744 50 625 71 693 b 250 819 145 794 193 819 b 353 797 288 819 322 812 b 440 752 384 782 413 767 b 521 729 466 737 493 729 b 625 774 572 729 606 744 b 628 781 626 775 627 778 b 632 788 630 784 631 787 b 638 790 633 788 635 789 b 649 792 640 791 644 792 l 690 792 b 713 788 704 792 712 790 b 713 775 713 786 713 781 b 667 658 708 746 693 707 b 566 476 642 608 608 547 b 469 303 524 404 492 346 b 415 119 433 231 415 169 b 452 18 415 86 428 52 b 489 -86 477 -16 489 -51 b 447 -184 489 -126 475 -159 b 339 -222 419 -209 383 -222 b 235 -175 297 -222 263 -206 b 193 -47 207 -144 193 -101 b 230 115 193 5 205 59 b 346 321 254 171 293 239 b 476 514 366 353 410 418 b 494 542 488 531 494 541 b 490 544 494 544 493 544 "},"8":{"ha":736,"x_min":0,"x_max":0,"o":"m 299 736 b 368 549 299 611 322 549 b 438 736 414 549 438 611 b 368 924 438 861 414 924 b 299 736 322 924 299 861 m 69 736 b 152 934 69 815 97 881 b 368 1014 207 987 279 1014 b 584 934 457 1014 529 987 b 667 736 639 881 667 815 b 627 617 667 692 653 652 b 524 531 601 581 566 553 b 501 508 509 522 501 515 b 529 486 501 502 511 494 b 649 392 579 465 619 433 b 694 250 679 350 694 303 b 613 47 694 164 667 96 b 368 -28 558 -3 476 -28 b 124 47 260 -28 178 -3 b 42 250 69 96 42 164 b 86 390 42 302 56 348 b 203 485 116 431 155 463 b 233 508 223 495 233 503 b 210 532 233 515 225 523 b 69 736 116 583 69 651 m 285 264 b 307 114 285 203 292 153 b 368 56 322 75 342 56 b 429 114 394 56 414 75 b 451 264 444 153 451 203 b 429 412 451 324 444 373 b 368 469 414 450 394 469 b 307 412 342 469 322 450 b 285 264 292 373 285 324 "},"9":{"ha":736,"x_min":0,"x_max":0,"o":"m 28 458 b 121 699 28 548 59 628 b 363 806 183 770 263 806 b 708 292 593 806 708 634 b 664 32 708 198 694 112 b 531 -162 634 -48 590 -112 b 328 -236 472 -211 405 -236 b 134 -176 251 -236 186 -216 b 56 -29 82 -135 56 -87 b 93 71 56 15 68 49 b 186 104 118 93 149 104 b 272 72 220 104 249 93 b 307 -18 295 50 307 20 b 294 -65 307 -37 303 -52 b 267 -95 285 -78 276 -88 b 253 -112 257 -102 253 -108 b 272 -139 253 -123 259 -131 b 328 -150 284 -146 303 -150 b 388 -127 351 -150 371 -142 b 427 -61 404 -112 417 -90 b 448 33 437 -32 444 -1 b 457 153 452 68 455 107 l 457 165 b 453 185 457 178 456 185 b 446 180 451 185 449 183 b 435 168 443 177 439 173 b 421 157 430 163 425 160 b 325 132 396 140 364 132 b 115 220 244 132 174 161 b 28 458 57 279 28 358 m 458 417 b 458 490 458 449 458 473 b 455 555 457 506 456 528 b 447 618 453 582 451 603 b 430 664 442 633 437 648 b 403 698 423 680 414 691 b 363 708 392 705 378 708 b 315 688 343 708 327 701 b 290 625 303 674 295 653 b 280 549 284 597 281 572 b 278 458 278 525 278 495 b 292 279 278 373 283 313 b 356 228 302 245 323 228 b 458 417 424 228 458 291 "}," ":{"ha":417,"x_min":0,"x_max":0,"o":""},"!":{"ha":499,"x_min":0,"x_max":0,"o":"m 400 881 b 347 626 395 800 378 715 b 297 406 317 536 300 463 l 297 394 b 297 385 297 390 297 387 b 295 380 296 384 296 382 b 292 375 295 378 294 376 b 284 373 290 374 287 373 b 272 372 281 372 277 372 l 222 372 b 205 376 213 372 207 374 b 201 390 203 379 201 384 b 201 397 201 391 201 393 b 200 404 200 400 200 402 b 150 626 197 463 181 536 b 97 881 119 715 102 800 l 97 907 b 141 1024 97 957 112 996 b 249 1067 170 1053 206 1067 b 357 1024 291 1067 327 1053 b 401 907 387 996 401 957 b 401 894 401 904 401 900 b 400 881 400 889 400 884 m 111 111 b 152 209 111 149 125 182 b 250 250 179 236 212 250 b 348 209 288 250 321 236 b 389 111 375 182 389 149 b 348 13 389 73 375 41 b 250 -28 321 -14 288 -28 b 152 13 212 -28 179 -14 b 111 111 125 41 111 73 "},"\"":{"ha":653,"x_min":0,"x_max":0,"o":"m 608 922 b 566 822 605 898 591 865 b 525 700 541 780 528 739 b 520 681 524 689 522 682 b 499 678 518 679 511 678 l 467 678 b 447 681 456 678 449 679 b 443 699 445 682 444 688 b 403 822 440 738 427 780 b 361 922 379 865 365 898 b 360 947 360 929 360 937 b 395 1031 360 979 372 1006 b 485 1067 419 1055 449 1067 b 574 1031 521 1067 551 1055 b 610 947 598 1006 610 979 b 608 922 610 937 609 929 m 303 922 b 260 822 299 898 285 865 b 219 700 236 780 222 739 b 215 681 219 689 217 682 b 193 678 212 679 205 678 l 161 678 b 142 681 150 678 144 679 b 138 699 140 682 138 688 b 97 822 135 738 121 780 b 56 922 73 865 59 898 b 54 947 55 929 54 937 b 90 1031 54 979 66 1006 b 179 1067 113 1055 143 1067 b 269 1031 215 1067 245 1055 b 304 947 292 1006 304 979 b 303 922 304 937 304 929 "},"#":{"ha":917,"x_min":0,"x_max":0,"o":"m 410 646 b 374 641 390 646 378 644 b 364 608 369 638 366 627 l 346 446 b 344 429 345 441 344 436 b 349 419 344 424 346 420 b 372 417 351 417 359 417 l 500 417 b 527 421 516 417 525 418 b 533 447 529 424 531 432 l 553 617 b 554 632 554 621 554 626 b 549 644 554 638 553 642 b 529 646 546 645 539 646 m 397 1118 b 418 1117 408 1118 415 1118 b 422 1107 421 1116 422 1113 b 421 1093 422 1101 422 1097 l 386 801 b 385 779 385 795 385 788 b 392 767 385 773 387 769 b 421 764 396 765 406 764 l 539 764 b 554 765 545 764 550 764 b 563 766 558 765 561 766 b 568 772 566 766 567 768 b 570 778 569 775 570 777 b 572 788 571 779 571 782 b 574 801 573 794 574 799 l 607 1088 b 615 1113 608 1100 611 1109 b 638 1118 620 1116 627 1118 l 701 1118 b 726 1096 718 1118 726 1111 b 726 1092 726 1095 726 1094 b 725 1086 725 1090 725 1088 l 693 806 b 690 781 691 791 690 782 b 698 767 690 773 693 769 b 731 764 703 765 714 764 l 900 764 b 926 760 915 764 924 763 b 931 733 929 757 931 748 l 931 682 b 926 651 931 664 929 654 b 894 646 924 647 913 646 l 706 646 b 678 642 690 646 681 644 b 671 615 675 639 673 630 l 653 463 b 651 446 653 458 652 452 b 649 432 649 439 649 435 b 679 417 649 422 659 417 l 844 417 b 858 417 848 417 853 417 b 869 418 864 418 868 418 b 889 394 882 418 889 410 l 889 349 b 890 333 889 345 889 340 b 890 319 890 327 890 322 b 867 299 890 306 882 299 l 657 299 b 637 294 647 299 640 297 b 631 271 634 291 631 283 l 593 -49 b 591 -64 592 -56 591 -61 b 587 -72 591 -67 589 -69 b 578 -76 584 -75 582 -76 l 561 -76 l 506 -76 b 474 -62 484 -76 474 -72 b 476 -40 474 -61 475 -53 l 513 272 b 513 280 513 274 513 277 b 514 286 514 283 514 285 b 510 297 514 292 513 295 b 494 299 507 298 502 299 l 358 299 l 340 299 b 330 292 335 299 332 296 b 326 283 328 287 326 284 b 325 265 326 282 326 276 l 289 -37 b 281 -71 287 -56 284 -67 b 249 -76 278 -75 267 -76 l 199 -76 b 168 -62 178 -76 168 -72 b 171 -35 168 -61 169 -51 l 207 269 b 208 285 208 273 208 278 b 186 299 208 294 201 299 l 22 299 b 11 298 19 299 16 298 b 1 297 6 297 3 297 b -14 318 -9 297 -14 304 l -14 388 b -10 413 -14 401 -13 410 b 10 417 -8 415 -1 417 l 192 417 b 203 417 196 417 200 417 b 212 418 207 418 209 418 b 218 420 214 418 216 419 b 222 423 220 422 221 422 b 224 428 223 423 224 425 b 226 435 225 432 225 434 b 227 443 226 436 227 438 b 228 454 228 448 228 451 l 246 608 b 249 632 248 623 249 631 b 217 646 249 641 238 646 l 46 646 b 31 650 38 646 34 647 b 28 671 29 653 28 660 l 28 733 b 33 760 28 748 29 757 b 63 764 36 763 46 764 l 242 764 b 262 768 252 764 259 765 b 268 790 265 771 267 778 l 303 1100 b 308 1115 304 1108 306 1113 b 325 1118 311 1117 317 1118 l 332 1118 "},"$":{"ha":917,"x_min":0,"x_max":0,"o":"m 556 93 b 653 264 620 118 653 175 b 564 388 653 318 623 359 b 526 404 542 399 529 404 b 511 378 517 404 512 395 l 494 117 l 494 110 b 513 81 494 90 500 81 b 556 93 521 81 535 85 m 364 925 b 300 810 321 902 300 863 b 353 722 300 775 318 745 b 388 706 369 711 381 706 b 404 764 396 706 401 725 l 414 897 l 414 911 b 400 940 414 931 409 940 b 364 925 396 940 384 935 m 667 889 b 638 929 667 905 657 918 b 565 946 619 940 595 946 b 549 939 556 946 551 944 b 546 906 548 934 547 923 l 533 706 b 532 679 532 698 532 689 b 539 656 532 668 534 660 b 569 642 544 651 554 646 b 692 595 618 626 658 610 b 794 532 725 580 759 559 b 875 429 830 505 856 471 b 903 285 894 388 903 339 b 800 77 903 200 869 130 b 531 -18 731 24 642 -8 b 517 -19 527 -18 522 -18 b 506 -20 511 -19 508 -20 b 499 -22 505 -21 503 -21 b 493 -24 496 -22 494 -23 b 489 -28 492 -26 491 -27 b 486 -35 487 -30 486 -32 b 485 -44 486 -37 486 -41 b 483 -58 484 -48 483 -53 l 482 -83 b 474 -112 481 -98 478 -108 b 451 -118 470 -116 463 -118 l 365 -118 b 352 -115 359 -118 354 -117 b 349 -103 350 -113 349 -109 l 349 -94 l 351 -47 b 352 -43 351 -46 352 -45 b 353 -39 353 -41 353 -40 b 351 -24 353 -32 352 -27 b 344 -16 349 -20 347 -17 b 335 -12 341 -15 338 -13 b 320 -10 332 -12 327 -11 b 303 -8 313 -10 307 -9 b 86 85 210 8 138 39 b 8 258 34 130 8 188 b 49 369 8 307 22 344 b 139 406 77 393 106 406 b 237 374 180 406 212 395 b 274 283 261 352 274 322 b 241 213 274 259 263 236 b 208 167 219 191 208 175 b 319 89 208 129 245 103 b 333 87 323 89 328 88 b 343 85 338 85 341 85 b 356 90 349 85 353 86 b 361 102 358 93 360 97 b 364 128 362 107 363 116 l 381 392 b 381 403 381 394 381 398 b 382 413 382 407 382 411 b 381 426 382 418 382 423 b 378 436 381 430 380 433 b 374 443 376 439 375 441 b 366 448 373 445 370 447 b 357 451 362 449 359 450 b 344 456 355 452 351 454 b 328 460 337 457 331 459 b 225 498 288 472 254 484 b 140 551 196 511 168 529 b 77 636 113 574 91 602 b 56 756 63 670 56 710 b 156 958 56 836 89 904 b 386 1058 222 1013 299 1046 b 422 1068 407 1061 419 1064 b 426 1094 424 1072 425 1081 l 428 1125 b 435 1153 429 1140 431 1149 b 458 1160 438 1158 446 1160 l 531 1160 b 556 1157 544 1160 552 1159 b 561 1144 559 1155 561 1151 b 560 1136 561 1144 561 1141 b 560 1125 560 1131 560 1128 l 558 1094 b 558 1084 558 1092 558 1088 b 557 1075 557 1080 557 1077 b 563 1058 557 1066 559 1060 b 592 1050 566 1055 576 1053 b 790 967 673 1035 739 1008 b 867 804 841 927 867 873 b 829 704 867 760 854 726 b 736 671 804 682 773 671 b 650 703 702 671 673 682 b 615 793 627 725 615 755 b 641 853 615 817 624 837 b 667 889 658 869 667 881 "},"%":{"ha":1389,"x_min":0,"x_max":0,"o":"m 28 750 b 103 985 28 851 53 929 b 326 1069 154 1041 228 1069 b 549 985 425 1069 499 1041 b 625 750 600 929 625 851 b 541 517 625 653 597 575 b 326 431 485 459 413 431 b 103 515 228 431 154 459 b 28 750 53 571 28 649 m 264 750 b 326 528 264 602 285 528 b 389 750 368 528 389 602 b 326 972 389 898 368 972 b 264 750 285 972 264 898 m 1078 1042 b 1117 1029 1104 1042 1117 1038 b 1107 1006 1117 1023 1113 1015 l 435 38 b 422 19 428 27 424 21 b 410 9 420 16 416 13 b 391 1 404 5 398 2 b 361 0 384 0 374 0 l 311 0 b 272 13 285 0 272 4 b 303 65 272 19 282 37 l 960 1001 b 969 1015 962 1004 965 1009 b 977 1026 973 1021 976 1025 b 985 1034 978 1028 981 1031 b 1001 1040 990 1037 995 1039 b 1022 1042 1007 1041 1014 1042 m 764 292 b 840 527 764 393 789 471 b 1063 611 890 583 964 611 b 1285 527 1161 611 1235 583 b 1361 292 1336 471 1361 393 b 1277 59 1361 194 1333 117 b 1063 -28 1221 1 1150 -28 b 840 56 964 -28 890 0 b 764 292 789 112 764 191 m 1000 292 b 1063 69 1000 144 1021 69 b 1125 292 1104 69 1125 144 b 1063 514 1125 440 1104 514 b 1000 292 1021 514 1000 440 "},"&":{"ha":1208,"x_min":0,"x_max":0,"o":"m 642 854 b 619 935 642 884 634 911 b 554 972 605 960 583 972 b 481 943 523 972 498 963 b 454 868 463 924 454 899 b 510 739 454 838 473 794 b 551 697 527 711 541 697 b 593 728 560 697 574 707 b 642 854 625 762 642 804 m 332 464 b 265 306 288 421 265 369 b 319 170 265 250 283 205 b 451 118 354 135 399 118 b 582 140 496 118 539 125 b 628 175 613 151 628 163 b 624 188 628 179 627 183 b 616 201 622 193 619 198 b 602 219 613 205 608 211 b 588 239 596 227 591 233 l 440 444 b 385 497 415 480 397 497 b 332 464 372 497 354 486 m 1101 639 b 1127 633 1115 639 1124 637 b 1132 600 1130 628 1132 618 l 1132 533 b 1127 511 1132 521 1130 514 b 1099 507 1124 508 1114 507 l 1068 507 l 1042 507 b 1027 499 1036 507 1031 504 b 1020 488 1023 493 1021 490 b 1014 467 1020 487 1018 480 b 917 261 994 394 961 325 l 906 247 b 897 235 902 242 899 238 b 892 226 895 232 894 229 b 890 215 891 222 890 219 b 903 186 890 207 894 197 l 925 156 b 944 136 932 145 939 139 b 979 132 950 133 962 132 l 1096 132 b 1120 126 1109 132 1117 130 b 1125 94 1123 123 1125 112 l 1125 53 b 1118 7 1125 27 1123 12 b 1074 0 1113 2 1099 0 l 797 0 b 744 19 771 0 754 6 l 729 42 b 708 58 722 53 715 58 b 679 44 706 58 696 54 b 403 -28 591 -4 499 -28 b 114 53 285 -28 189 -1 b 1 278 39 106 1 181 b 71 465 1 358 25 421 b 265 578 117 510 182 547 b 277 582 269 579 273 580 b 287 586 281 584 284 585 b 295 589 289 587 292 588 b 302 592 298 590 301 591 b 308 594 303 593 305 594 b 313 597 310 595 312 596 l 315 600 b 317 603 316 601 317 602 b 318 607 318 605 318 606 b 294 647 318 613 310 626 l 271 681 b 207 838 228 741 207 793 b 303 1002 207 902 239 957 b 556 1069 367 1047 451 1069 b 786 1013 654 1069 731 1050 b 869 868 842 975 869 926 b 819 726 869 810 853 763 b 676 631 785 690 738 658 b 648 620 670 628 660 624 b 623 609 635 616 627 612 b 617 597 619 606 617 602 b 631 567 617 590 621 580 l 778 361 b 810 329 794 340 804 329 b 840 369 814 329 825 343 b 878 456 855 396 868 425 b 889 493 885 478 889 490 b 849 507 889 502 875 507 l 807 507 b 783 526 791 507 783 513 b 784 538 783 528 784 532 b 785 553 784 544 785 549 l 785 600 b 790 632 785 617 787 627 b 813 639 794 637 801 639 "},"'":{"ha":360,"x_min":0,"x_max":0,"o":"m 303 922 b 260 822 299 898 285 865 b 219 700 236 780 222 739 b 215 681 219 689 217 682 b 193 678 212 679 205 678 l 161 678 b 142 681 150 678 144 679 b 138 699 140 682 138 688 b 97 822 135 738 121 780 b 56 922 73 865 59 898 b 54 947 55 929 54 937 b 90 1031 54 979 66 1006 b 179 1067 113 1055 143 1067 b 269 1031 215 1067 245 1055 b 304 947 292 1006 304 979 b 303 922 304 937 304 929 "},"(":{"ha":674,"x_min":0,"x_max":0,"o":"m 636 -194 b 601 -231 626 -219 614 -231 b 556 -219 593 -231 578 -227 b 208 26 412 -174 296 -92 b 76 451 120 144 76 286 b 201 854 76 611 118 745 b 533 1088 284 963 394 1041 b 597 1107 572 1100 594 1107 b 631 1081 612 1107 623 1098 l 640 1058 b 651 1024 648 1041 651 1029 b 650 1016 651 1021 651 1018 b 644 1010 649 1014 647 1012 b 634 1005 641 1008 637 1006 b 619 998 631 1003 626 1001 b 603 990 613 995 607 992 b 347 451 432 907 347 727 b 615 -121 347 155 437 -36 b 634 -128 620 -123 626 -125 b 650 -136 642 -132 647 -134 b 654 -146 653 -138 654 -141 b 649 -164 654 -147 652 -153 "},")":{"ha":674,"x_min":0,"x_max":0,"o":"m 38 1069 b 72 1106 48 1094 59 1106 b 118 1094 81 1106 96 1102 b 465 849 262 1049 377 967 b 597 424 553 731 597 589 b 473 21 597 264 556 130 b 140 -212 390 -88 279 -166 b 76 -232 101 -225 80 -232 b 43 -206 62 -232 50 -223 l 33 -183 b 22 -149 26 -166 22 -154 b 24 -141 22 -146 23 -143 b 30 -135 25 -139 27 -137 b 40 -130 33 -133 36 -131 b 54 -123 43 -128 48 -126 b 71 -115 61 -120 66 -117 b 326 424 241 -32 326 148 b 58 996 326 720 237 911 b 40 1003 54 998 47 1000 b 24 1011 32 1007 26 1009 b 19 1021 21 1013 19 1016 b 25 1039 19 1022 21 1028 "},"*":{"ha":882,"x_min":0,"x_max":0,"o":"m 794 856 b 760 774 794 824 783 797 b 672 740 737 752 707 740 b 633 742 664 740 651 741 b 592 744 616 744 602 744 b 517 732 566 744 541 740 b 499 722 505 728 499 725 b 517 713 499 719 505 716 b 592 700 541 704 566 700 b 633 702 602 700 616 701 b 672 704 651 703 664 704 b 760 670 707 704 737 693 b 794 589 783 647 794 620 b 757 503 794 556 782 527 b 675 467 732 479 705 467 b 600 496 644 467 619 476 b 552 570 586 508 570 533 b 489 657 534 608 513 637 b 481 663 486 660 483 662 b 474 665 478 665 475 665 b 469 661 472 664 470 663 b 469 653 469 659 469 656 b 515 551 476 620 491 587 b 557 471 539 516 553 489 b 558 446 558 464 558 456 b 524 367 558 415 547 389 b 440 333 502 344 474 333 b 356 367 407 333 379 344 b 322 446 334 389 322 415 b 362 547 322 476 335 510 b 410 647 388 583 404 617 b 411 661 411 651 411 656 b 408 669 411 667 410 669 b 385 653 406 669 398 664 b 326 568 362 632 342 604 b 281 496 309 532 294 508 b 206 467 261 476 236 467 b 124 503 176 467 149 479 b 86 589 99 527 86 556 b 121 670 86 620 98 647 b 208 704 144 693 173 704 b 247 702 217 704 230 703 b 289 700 265 701 279 700 b 365 713 316 700 341 704 b 382 722 376 716 382 719 b 358 735 382 726 374 730 b 289 744 339 741 316 744 b 247 742 279 744 265 744 b 208 740 230 741 217 740 b 121 774 173 740 144 752 b 86 856 98 797 86 824 b 124 942 86 889 99 918 b 206 978 149 966 176 978 b 281 949 236 978 261 968 b 328 876 294 937 310 912 b 388 792 347 839 366 811 b 408 778 397 782 404 778 b 413 785 411 778 413 780 b 407 814 413 792 411 802 b 360 903 400 839 385 869 b 322 999 335 937 322 969 b 356 1078 322 1029 334 1056 b 440 1111 379 1100 407 1111 b 524 1078 474 1111 502 1100 b 558 999 547 1056 558 1029 b 522 903 558 969 546 937 b 475 817 497 869 481 840 b 468 785 470 801 468 790 b 472 778 468 780 469 778 b 493 792 477 778 484 782 b 552 876 514 811 534 839 b 600 949 570 912 586 937 b 675 978 619 968 644 978 b 757 942 705 978 732 966 b 794 856 782 918 794 889 "},"+":{"ha":736,"x_min":0,"x_max":0,"o":"m 606 497 b 647 492 630 497 644 495 b 653 450 651 488 653 474 l 653 411 b 649 385 653 397 651 388 b 631 379 646 381 640 379 l 458 379 b 432 375 444 379 436 378 b 426 356 428 372 426 366 l 426 192 b 422 159 426 174 425 163 b 397 153 418 155 410 153 l 353 153 b 317 160 334 153 322 155 b 308 185 311 164 308 173 b 309 201 308 188 309 193 b 310 222 309 210 310 217 l 310 339 b 303 372 310 356 307 367 b 279 381 298 378 290 381 b 263 380 276 381 271 380 b 242 379 254 379 247 379 l 117 379 b 89 383 102 379 93 381 b 83 404 85 386 83 393 l 83 450 b 89 491 83 473 85 487 b 126 497 93 495 105 497 l 256 497 b 301 504 281 497 296 500 b 310 539 307 509 310 520 l 310 694 b 313 718 310 707 311 715 b 332 722 316 721 322 722 l 392 722 b 422 718 408 722 418 721 b 426 694 425 715 426 707 l 426 547 b 434 504 426 523 429 509 b 483 497 439 500 456 497 "},",":{"ha":424,"x_min":0,"x_max":0,"o":"m 56 117 b 96 215 56 156 69 188 b 204 254 123 241 159 254 b 319 208 251 254 290 239 b 364 68 349 177 364 130 b 288 -128 364 -14 338 -80 b 99 -214 237 -176 174 -205 b 79 -215 94 -215 88 -215 b 53 -192 62 -215 53 -207 l 53 -150 b 54 -131 53 -142 53 -135 b 60 -121 55 -126 57 -123 b 69 -118 64 -119 67 -118 b 84 -117 72 -118 77 -118 b 103 -115 91 -117 97 -116 b 251 -22 181 -104 231 -73 b 258 1 256 -12 258 -4 b 257 4 258 3 258 4 b 253 3 256 4 255 4 l 247 0 b 240 -4 245 -1 243 -2 b 229 -10 236 -6 233 -8 b 164 -21 214 -17 193 -21 b 83 19 129 -21 102 -8 b 56 117 65 45 56 78 "},"-":{"ha":639,"x_min":0,"x_max":0,"o":"m 529 604 b 557 581 548 604 557 596 b 556 566 557 578 557 573 b 556 549 556 559 556 553 l 556 499 b 545 476 556 487 552 479 b 486 472 538 474 519 472 l 142 472 b 92 478 114 472 97 474 b 83 507 86 481 83 491 l 83 560 b 92 596 83 578 86 590 b 138 604 98 601 113 604 "},".":{"ha":389,"x_min":0,"x_max":0,"o":"m 56 111 b 97 209 56 149 69 182 b 194 250 124 236 156 250 b 292 209 232 250 265 236 b 333 111 320 182 333 149 b 292 13 333 73 320 41 b 194 -28 265 -14 232 -28 b 97 13 156 -28 124 -14 b 56 111 69 41 56 73 "},"/":{"ha":722,"x_min":0,"x_max":0,"o":"m 599 1083 b 656 1060 637 1083 656 1075 b 638 1001 656 1053 650 1034 l 228 -151 b 223 -167 227 -154 225 -159 b 219 -179 221 -174 219 -178 b 215 -188 218 -180 217 -183 b 208 -197 212 -193 210 -196 b 200 -201 206 -197 204 -199 b 188 -206 196 -204 192 -206 b 174 -208 184 -207 179 -207 b 153 -208 168 -208 161 -208 l 106 -208 b 61 -193 76 -208 61 -203 b 78 -146 61 -189 67 -174 l 500 1024 b 506 1040 501 1027 503 1033 b 511 1055 508 1048 510 1053 b 517 1065 512 1057 514 1061 b 525 1074 519 1070 522 1073 b 536 1079 528 1076 531 1077 b 553 1083 541 1081 546 1082 b 576 1083 559 1083 567 1083 "},":":{"ha":386,"x_min":0,"x_max":0,"o":"m 56 694 b 97 792 56 732 69 765 b 194 833 124 820 156 833 b 292 792 232 833 265 820 b 333 694 320 765 333 732 b 292 597 333 656 320 624 b 194 556 265 569 232 556 b 97 597 156 556 124 569 b 56 694 69 624 56 656 m 56 111 b 97 209 56 149 69 182 b 194 250 124 236 156 250 b 292 209 232 250 265 236 b 333 111 320 182 333 149 b 292 13 333 73 320 41 b 194 -28 265 -14 232 -28 b 97 13 156 -28 124 -14 b 56 111 69 41 56 73 "},";":{"ha":410,"x_min":0,"x_max":0,"o":"m 56 694 b 97 792 56 732 69 765 b 194 833 124 820 156 833 b 292 792 232 833 265 820 b 333 694 320 765 333 732 b 292 597 333 656 320 624 b 194 556 265 569 232 556 b 97 597 156 556 124 569 b 56 694 69 624 56 656 m 56 117 b 96 215 56 156 69 188 b 204 254 123 241 159 254 b 319 208 251 254 290 239 b 364 68 349 177 364 130 b 288 -128 364 -14 338 -80 b 99 -214 237 -176 174 -205 b 79 -215 94 -215 88 -215 b 53 -192 62 -215 53 -207 l 53 -150 b 54 -131 53 -142 53 -135 b 60 -121 55 -126 57 -123 b 69 -118 64 -119 67 -118 b 84 -117 72 -118 77 -118 b 103 -115 91 -117 97 -116 b 251 -22 181 -104 231 -73 b 258 1 256 -12 258 -4 b 257 4 258 3 258 4 b 253 3 256 4 255 4 l 247 0 b 240 -4 245 -1 243 -2 b 229 -10 236 -6 233 -8 b 164 -21 214 -17 193 -21 b 83 19 129 -21 102 -8 b 56 117 65 45 56 78 "},"<":{"ha":778,"x_min":0,"x_max":0,"o":"m 644 367 b 660 360 647 366 653 364 b 674 354 668 357 673 355 l 683 349 b 690 339 687 346 689 343 b 693 324 691 335 692 330 b 694 300 694 317 694 309 l 694 258 b 681 207 694 224 690 207 b 636 224 679 207 664 213 l 128 421 b 90 442 106 429 94 436 b 83 493 85 448 83 465 l 83 583 b 84 619 83 599 84 611 b 94 639 84 627 88 633 b 108 649 101 644 106 648 b 136 660 111 650 120 653 l 644 856 b 682 869 669 865 681 869 b 694 822 690 869 694 854 l 694 783 b 692 756 694 772 694 763 b 688 738 691 748 690 742 b 679 725 687 733 684 729 b 668 718 675 721 671 719 b 651 712 665 717 659 715 b 631 704 642 709 635 706 l 286 571 b 219 539 242 554 219 544 b 283 506 219 533 241 522 "},"=":{"ha":778,"x_min":0,"x_max":0,"o":"m 142 576 b 92 582 114 576 97 578 b 83 611 86 586 83 595 l 83 664 b 92 700 83 682 86 694 b 138 708 98 706 113 708 l 668 708 b 696 685 687 708 696 700 b 695 670 696 682 696 677 b 694 653 695 663 694 657 l 694 603 b 684 581 694 591 691 583 b 625 576 677 578 657 576 m 142 368 b 92 374 114 368 97 370 b 83 403 86 377 83 387 l 83 456 b 92 492 83 474 86 486 b 138 500 98 497 113 500 l 668 500 b 696 476 687 500 696 492 b 695 462 696 474 696 469 b 694 444 695 455 694 449 l 694 394 b 684 372 694 382 691 375 b 625 368 677 369 657 368 "},">":{"ha":778,"x_min":0,"x_max":0,"o":"m 133 710 b 117 716 131 711 125 713 b 103 722 109 719 105 721 l 95 728 b 88 738 91 731 88 734 b 85 753 87 741 86 746 b 83 776 84 759 83 767 l 83 818 b 97 869 83 852 88 869 b 142 853 99 869 114 864 l 650 656 b 688 634 671 647 684 640 b 694 583 692 628 694 611 l 694 493 b 694 458 694 477 694 466 b 683 438 693 450 690 443 b 669 428 677 432 672 429 b 642 417 667 427 657 423 l 133 221 b 96 207 109 212 97 207 b 83 254 88 207 83 223 l 83 293 b 85 321 83 304 84 313 b 90 339 87 328 88 334 b 99 351 91 344 94 348 b 110 358 103 355 107 357 b 127 365 113 359 118 361 b 147 372 136 368 143 370 l 492 506 b 558 538 536 522 558 533 b 494 571 558 543 537 554 "},"?":{"ha":819,"x_min":0,"x_max":0,"o":"m 269 919 b 287 891 269 913 275 903 b 322 840 298 878 310 861 b 339 764 333 818 339 793 b 300 674 339 728 326 698 b 204 639 274 651 242 639 b 103 681 164 639 131 653 b 63 793 76 709 63 747 b 157 985 63 864 94 928 b 418 1069 220 1041 307 1069 b 701 996 546 1069 640 1045 b 792 792 761 947 792 879 b 731 619 792 722 772 665 b 567 518 691 574 636 540 b 548 513 562 516 556 514 b 533 508 540 511 535 509 b 523 503 530 507 527 506 b 515 493 519 500 516 497 b 511 478 513 489 512 484 b 510 453 510 471 510 463 l 510 390 b 503 352 510 369 507 356 b 461 346 498 348 484 346 l 325 346 b 294 351 309 346 299 347 b 288 372 290 354 288 361 l 288 486 b 289 517 288 499 288 509 b 298 537 290 525 293 532 b 308 547 303 542 306 545 b 328 553 310 548 317 550 b 350 561 339 557 346 559 b 492 650 412 584 459 614 b 540 792 524 686 540 733 b 508 924 540 849 530 893 b 390 969 487 954 448 969 b 326 960 367 969 346 966 b 283 940 307 954 293 947 b 269 919 274 932 269 925 m 263 111 b 303 209 263 149 276 182 b 401 250 331 236 363 250 b 499 209 439 250 472 236 b 540 111 527 182 540 149 b 499 13 540 73 527 41 b 401 -28 472 -14 439 -28 b 303 13 363 -28 331 -14 b 263 111 276 41 263 73 "},"@":{"ha":1528,"x_min":0,"x_max":0,"o":"m 1175 -132 b 679 -311 1057 -251 892 -311 b 517 -292 625 -311 572 -305 b 353 -226 463 -279 408 -257 b 206 -111 297 -195 248 -156 b 103 65 164 -66 130 -7 b 63 307 76 138 63 218 b 166 719 63 458 97 595 b 447 1008 235 842 329 939 b 840 1111 566 1077 697 1111 b 1297 956 1037 1111 1189 1059 b 1458 557 1404 852 1458 719 b 1412 331 1458 476 1443 401 b 1272 158 1381 261 1334 204 b 1057 90 1209 113 1138 90 b 889 174 984 90 928 118 b 864 201 876 192 868 201 b 856 197 861 201 859 200 b 846 181 854 193 850 188 b 831 161 841 173 836 167 b 672 90 786 114 733 90 b 506 145 599 90 544 109 b 450 292 469 182 450 231 b 540 610 450 417 480 523 b 789 742 600 698 683 742 b 924 664 862 742 907 716 b 933 629 926 654 930 642 b 938 618 935 622 937 618 b 940 624 938 618 939 620 b 944 644 941 627 943 634 l 950 675 b 967 715 955 696 960 709 b 1013 722 974 720 989 722 l 1129 722 b 1180 719 1155 722 1172 721 b 1192 703 1188 716 1192 711 b 1183 660 1192 702 1189 688 l 1097 292 b 1092 254 1094 269 1092 257 b 1122 222 1092 233 1102 222 b 1258 315 1166 222 1211 253 b 1329 563 1306 377 1329 460 b 1198 879 1329 700 1285 806 b 864 989 1110 952 999 989 b 479 795 714 989 586 924 b 319 321 373 666 319 508 b 347 109 319 241 329 171 b 417 -37 366 47 389 -1 b 517 -124 446 -72 479 -101 b 626 -168 556 -146 592 -161 b 729 -179 659 -175 694 -179 b 921 -153 800 -179 863 -171 b 1086 -54 978 -136 1033 -103 b 1119 -33 1102 -40 1113 -33 b 1150 -51 1128 -33 1138 -39 l 1169 -71 b 1194 -103 1186 -87 1194 -98 b 1175 -132 1194 -109 1188 -119 m 894 481 b 825 636 894 584 871 636 b 733 525 794 636 764 599 b 688 306 703 451 688 378 b 698 224 688 269 691 241 b 742 197 705 206 719 197 b 848 294 781 197 817 229 b 894 481 879 358 894 420 "},"A":{"ha":1361,"x_min":0,"x_max":0,"o":"m 89 0 b 69 -1 83 0 77 0 b 56 -1 62 -1 57 -1 b 34 6 45 -1 38 1 b 28 36 30 11 28 21 l 28 117 b 33 142 28 131 30 139 b 64 146 37 144 47 146 l 108 146 b 141 148 121 146 132 147 b 162 152 150 149 157 151 b 176 163 167 153 172 157 b 185 175 181 168 184 172 b 194 194 187 178 190 184 b 203 217 198 205 201 212 l 547 1025 b 569 1057 555 1043 562 1053 b 622 1063 577 1061 594 1063 l 731 1063 b 759 1060 742 1063 751 1062 b 778 1056 767 1059 773 1058 b 790 1047 782 1055 787 1052 b 797 1035 794 1041 796 1038 b 803 1017 798 1032 800 1026 b 811 997 807 1009 809 1002 l 1128 203 b 1133 190 1129 200 1130 196 b 1138 178 1135 184 1137 180 b 1142 170 1138 177 1140 174 b 1147 163 1144 166 1145 163 b 1152 157 1148 162 1150 160 b 1159 152 1154 154 1157 153 b 1168 149 1161 152 1164 151 b 1181 147 1172 148 1176 147 b 1195 147 1185 147 1190 147 b 1214 146 1200 146 1206 146 l 1306 146 b 1329 141 1319 146 1326 144 b 1333 111 1332 138 1333 128 l 1333 31 b 1327 5 1333 17 1331 8 b 1292 0 1323 2 1311 0 l 750 0 b 715 6 731 0 720 2 b 708 31 711 9 708 18 l 708 119 b 713 141 708 131 710 138 b 728 146 715 144 720 146 l 800 146 b 846 158 831 146 846 150 b 832 197 846 160 841 173 l 822 225 b 802 259 816 244 809 256 b 753 264 795 262 779 264 l 458 264 b 406 257 434 264 417 262 b 385 242 394 252 388 247 b 367 203 382 237 376 224 b 351 160 356 178 351 163 b 414 146 351 150 372 146 b 431 147 419 146 424 146 b 444 147 437 147 442 147 b 466 140 455 147 462 145 b 472 108 470 134 472 124 l 472 38 b 465 6 472 20 470 9 b 425 0 461 2 447 0 m 601 778 b 560 669 598 763 584 727 l 475 464 b 461 424 466 443 461 429 b 472 412 461 417 465 413 b 519 410 480 410 495 410 l 697 410 b 750 428 732 410 750 416 b 747 441 750 431 749 436 b 739 461 745 446 743 453 b 731 483 735 469 732 477 l 656 692 b 629 781 650 706 641 736 b 615 804 625 796 621 804 b 601 778 611 804 606 795 "},"B":{"ha":1153,"x_min":0,"x_max":0,"o":"m 611 611 b 778 757 722 611 778 660 b 737 865 778 809 764 845 b 611 896 709 886 668 896 l 511 896 b 460 889 483 896 466 894 b 451 849 454 884 451 871 l 451 672 b 460 619 451 643 454 625 b 519 611 466 614 486 611 m 625 146 b 806 313 745 146 806 201 b 625 465 806 414 745 465 l 493 465 b 459 456 475 465 464 462 b 451 408 454 449 451 433 l 451 213 b 462 155 451 180 455 161 b 528 146 469 149 491 146 l 625 146 m 85 0 b 49 9 65 0 53 3 b 42 58 44 15 42 31 l 42 100 b 49 140 42 122 44 135 b 94 146 53 144 69 146 l 139 146 b 185 154 163 146 178 149 b 196 186 192 160 196 170 b 195 206 196 189 196 195 b 194 231 195 216 194 224 l 194 842 b 188 888 194 868 192 883 b 151 896 184 893 172 896 l 79 896 b 47 903 62 896 51 898 b 42 944 44 907 42 921 l 42 994 b 47 1034 42 1016 44 1029 b 76 1042 51 1039 61 1042 l 625 1042 b 938 983 764 1042 868 1022 b 1042 785 1007 944 1042 878 b 906 575 1042 690 996 620 b 892 569 901 573 896 571 b 879 563 887 566 883 565 b 869 559 875 562 872 560 b 860 555 866 558 863 556 b 854 551 858 553 856 552 b 850 549 852 550 851 550 b 849 546 849 548 849 547 b 906 514 849 540 868 530 b 1038 423 964 488 1008 458 b 1083 292 1068 388 1083 344 b 978 65 1083 184 1048 109 b 653 0 907 22 799 0 "},"C":{"ha":1188,"x_min":0,"x_max":0,"o":"m 1151 344 b 981 77 1129 236 1072 147 b 639 -28 889 7 775 -28 b 209 124 450 -28 307 23 b 63 521 111 226 63 358 b 228 912 63 676 118 807 b 646 1069 339 1017 478 1069 b 865 1003 727 1069 800 1047 b 890 983 874 997 882 991 b 909 965 897 975 904 969 b 924 958 914 960 919 958 b 957 988 932 958 943 968 l 982 1022 b 1005 1044 990 1034 998 1042 b 1049 1049 1012 1047 1026 1049 l 1107 1049 b 1141 1043 1126 1049 1138 1047 b 1146 1007 1144 1039 1146 1027 l 1146 703 b 1138 667 1146 683 1143 671 b 1092 660 1132 662 1117 660 l 1031 660 b 997 665 1016 660 1004 662 b 982 676 989 669 984 673 b 974 699 980 680 978 688 b 965 726 971 710 968 719 b 849 866 940 784 902 830 b 667 919 797 902 736 919 b 440 810 573 919 498 883 b 354 521 383 737 354 640 b 434 232 354 400 381 304 b 653 124 487 160 560 124 b 870 181 741 124 813 143 b 986 336 927 219 966 270 b 993 368 989 344 991 355 b 999 393 995 381 997 389 b 1015 404 1002 397 1007 400 b 1053 410 1024 408 1036 410 l 1100 410 b 1147 405 1123 410 1139 408 b 1158 385 1154 402 1158 395 b 1151 344 1158 378 1156 365 "},"D":{"ha":1243,"x_min":0,"x_max":0,"o":"m 611 146 b 828 235 715 146 787 175 b 889 521 869 294 889 389 b 824 805 889 650 867 744 b 611 896 780 866 709 896 l 511 896 b 460 885 483 896 466 892 b 451 819 454 877 451 856 l 451 196 b 462 154 451 174 455 160 b 517 146 469 149 487 146 m 131 0 b 103 -1 124 0 115 0 b 79 -3 92 -2 84 -3 b 42 36 54 -3 42 10 l 42 108 b 47 140 42 125 43 135 b 69 146 50 144 57 146 l 142 146 b 185 154 164 146 178 149 b 196 185 192 160 196 170 b 195 203 196 188 196 194 b 194 228 195 213 194 221 l 194 836 b 185 888 194 865 191 882 b 128 896 179 893 160 896 l 89 896 b 48 903 66 896 52 898 b 42 950 44 909 42 924 l 42 997 b 49 1035 42 1017 44 1029 b 75 1043 53 1040 62 1043 b 91 1042 78 1043 83 1043 b 111 1042 99 1042 106 1042 l 611 1042 b 865 1002 706 1042 791 1028 b 1044 892 939 976 999 939 b 1147 727 1090 844 1124 790 b 1181 521 1169 665 1181 596 b 1033 144 1181 366 1131 241 b 611 0 935 48 794 0 "},"E":{"ha":1076,"x_min":0,"x_max":0,"o":"m 100 896 b 50 903 72 896 56 898 b 42 943 44 907 42 921 l 42 997 b 49 1035 42 1017 44 1029 b 75 1043 53 1040 62 1043 b 91 1042 78 1043 83 1043 b 111 1042 99 1042 106 1042 l 981 1042 b 1027 1035 1006 1042 1022 1040 b 1035 999 1032 1031 1035 1019 l 1035 711 b 1026 681 1035 695 1032 685 b 983 674 1021 676 1006 674 l 939 674 b 913 675 928 674 919 674 b 900 683 907 676 903 678 b 895 694 897 687 896 691 b 894 713 895 697 894 703 b 893 736 894 723 894 731 b 845 860 888 795 872 837 b 701 896 818 884 770 896 l 526 896 b 462 884 490 896 469 892 b 451 811 455 876 451 852 l 451 621 b 457 599 451 610 453 603 b 486 594 461 596 470 594 b 592 624 529 594 564 604 b 647 706 619 644 638 671 b 651 726 649 711 650 718 b 653 742 651 734 652 739 b 661 751 654 746 656 748 b 683 754 666 753 673 754 l 711 754 b 749 748 731 754 744 752 b 757 721 754 744 757 735 l 757 378 b 758 360 757 373 757 367 b 758 346 758 353 758 349 b 751 323 758 335 756 327 b 717 317 746 319 734 317 l 683 317 b 661 320 673 317 666 318 b 653 328 656 322 654 325 b 651 344 652 331 651 336 b 647 364 650 352 649 358 b 592 451 639 400 621 429 b 486 483 564 472 529 483 l 482 483 b 455 479 466 483 457 482 b 451 450 453 476 451 467 l 451 193 b 463 154 451 173 455 160 b 517 146 470 149 488 146 l 688 146 b 854 189 767 146 823 160 b 908 339 886 218 904 268 b 910 366 909 345 910 354 b 910 388 910 378 910 385 b 917 399 911 390 913 394 b 932 408 920 404 925 407 b 961 410 938 409 948 410 l 997 410 b 1041 403 1021 410 1036 408 b 1049 369 1046 399 1049 388 l 1049 49 b 1039 8 1049 26 1045 13 b 986 0 1032 3 1015 0 l 128 0 b 101 -1 120 0 112 0 b 81 -1 91 -1 84 -1 b 50 9 66 -1 56 2 b 42 53 44 16 42 31 l 42 94 b 49 140 42 120 44 135 b 92 146 53 144 68 146 l 131 146 b 184 154 159 146 177 149 b 194 193 191 160 194 173 l 194 856 b 185 889 194 873 191 884 b 139 896 179 894 164 896 "},"F":{"ha":1063,"x_min":0,"x_max":0,"o":"m 89 896 b 49 902 67 896 53 898 b 42 933 44 906 42 917 l 42 981 b 49 1033 42 1009 44 1027 b 90 1042 54 1039 68 1042 l 986 1042 b 1015 1033 1001 1042 1010 1039 b 1021 992 1019 1028 1021 1014 l 1021 742 b 1022 717 1021 735 1021 727 b 1022 697 1022 706 1022 700 b 1013 667 1022 682 1019 672 b 969 660 1006 662 992 660 l 925 660 b 899 661 914 660 905 660 b 886 669 893 662 889 665 b 881 680 883 673 882 677 b 881 699 881 683 881 690 b 879 722 881 709 880 717 b 831 856 875 784 858 829 b 688 896 803 882 755 896 l 514 896 b 461 888 485 896 468 893 b 451 849 455 882 451 869 l 451 619 b 452 598 451 609 452 602 b 458 586 453 594 454 590 b 472 581 461 582 466 581 b 578 608 513 581 548 590 b 642 681 607 626 629 650 b 649 707 644 688 647 697 b 653 727 650 717 652 724 b 666 736 655 730 659 733 b 697 740 673 739 683 740 l 719 740 b 751 735 737 740 748 739 b 757 711 755 732 757 724 l 757 339 b 758 324 757 335 757 330 b 758 311 758 317 758 313 b 731 289 758 296 749 289 l 686 289 b 663 292 676 289 668 290 b 654 297 658 294 655 295 b 651 312 653 299 652 304 b 647 331 649 320 648 326 b 602 407 640 360 625 386 b 519 450 579 428 552 443 b 479 457 498 455 485 457 b 451 431 461 457 451 448 l 451 211 b 451 192 451 206 451 200 b 450 174 450 183 450 177 b 481 146 450 155 460 146 l 558 146 b 576 147 563 146 569 146 b 590 147 583 147 588 147 b 612 140 600 147 608 145 b 618 108 616 134 618 124 l 618 42 b 613 6 618 22 616 10 b 582 0 609 2 599 0 l 69 0 b 47 6 57 0 50 2 b 42 39 43 10 42 21 l 42 118 b 49 141 42 130 44 138 b 81 146 53 144 64 146 l 125 146 b 181 153 154 146 172 148 b 194 192 190 159 194 171 l 194 853 b 188 890 194 874 192 887 b 144 896 183 894 169 896 "},"G":{"ha":1285,"x_min":0,"x_max":0,"o":"m 1243 542 b 1265 535 1254 542 1262 539 b 1271 501 1269 530 1271 519 l 1271 426 b 1265 401 1271 413 1269 404 b 1232 396 1260 397 1250 396 l 1179 396 b 1138 389 1156 396 1142 394 b 1132 343 1134 384 1132 369 b 1126 272 1132 313 1130 289 b 1101 214 1123 256 1114 236 b 917 44 1063 149 1002 93 b 625 -28 833 -4 735 -28 b 215 120 453 -28 316 22 b 63 521 113 219 63 352 b 222 913 63 677 116 808 b 632 1069 329 1017 465 1069 b 885 982 733 1069 817 1040 b 917 958 903 966 914 958 b 943 988 920 958 929 968 l 968 1024 b 989 1044 975 1035 982 1042 b 1029 1049 995 1047 1009 1049 l 1079 1049 b 1112 1043 1097 1049 1108 1047 b 1118 1019 1116 1039 1118 1031 l 1118 724 b 1119 705 1118 719 1118 713 b 1119 689 1119 697 1119 692 b 1112 666 1119 678 1117 670 b 1079 660 1107 662 1096 660 l 1010 660 b 983 664 998 660 989 661 b 971 671 977 667 973 669 b 965 688 969 673 967 678 b 958 710 962 698 960 705 b 844 861 936 772 898 822 b 653 919 790 900 726 919 b 442 808 571 919 501 882 b 354 521 384 733 354 638 b 425 228 354 400 378 302 b 618 118 472 155 537 118 b 840 208 716 118 790 148 b 846 215 841 209 843 211 b 851 222 849 218 850 220 b 856 228 852 223 854 225 b 861 235 859 231 860 233 b 865 242 862 237 863 239 b 869 249 867 244 868 247 b 871 258 869 252 870 255 b 873 269 872 262 872 266 b 874 280 873 272 874 276 b 875 293 875 284 875 288 l 875 346 b 869 389 875 370 873 384 b 831 396 865 394 852 396 l 711 396 b 681 405 696 396 686 399 b 674 449 676 411 674 425 l 674 501 b 679 535 674 519 675 530 b 703 542 683 539 691 542 "},"H":{"ha":1333,"x_min":0,"x_max":0,"o":"m 451 646 b 458 617 451 630 454 620 b 496 611 463 613 475 611 l 840 611 b 875 618 858 611 869 613 b 883 643 881 623 883 631 b 883 660 883 646 883 652 b 882 682 882 669 882 676 l 882 865 b 878 890 882 878 881 887 b 860 896 875 894 869 896 l 765 896 b 723 902 742 896 728 898 b 715 936 718 906 715 918 l 715 1007 b 720 1035 715 1022 717 1031 b 740 1042 723 1040 730 1042 l 1235 1042 b 1251 1042 1239 1042 1245 1042 b 1264 1043 1257 1043 1261 1043 b 1285 1035 1274 1043 1281 1041 b 1292 1004 1290 1030 1292 1020 l 1292 932 b 1287 901 1292 915 1290 905 b 1265 896 1284 898 1276 896 l 1175 896 b 1144 889 1158 896 1148 894 b 1139 849 1141 884 1139 871 l 1139 171 b 1145 151 1139 162 1141 155 b 1174 146 1149 148 1159 146 l 1256 146 b 1288 141 1274 146 1285 144 b 1292 107 1290 138 1292 126 l 1292 38 b 1287 6 1292 21 1290 10 b 1264 0 1284 2 1276 0 l 768 0 b 752 -1 763 0 758 0 b 739 -1 746 -1 742 -1 b 721 5 731 -1 725 1 b 715 29 717 9 715 17 l 715 101 b 721 139 715 122 717 134 b 751 146 725 144 735 146 l 849 146 b 876 151 863 146 872 148 b 883 171 881 155 883 162 b 883 183 883 173 883 177 b 882 199 882 190 882 195 l 882 424 b 876 458 882 442 880 454 b 853 465 873 463 865 465 l 488 465 b 458 457 472 465 462 463 b 451 415 453 451 451 438 l 451 186 b 459 152 451 168 454 156 b 501 146 464 148 478 146 l 593 146 b 614 140 604 146 611 144 b 618 113 617 137 618 127 l 618 44 b 611 6 618 23 616 10 b 568 0 606 2 592 0 l 68 0 b 47 7 57 0 50 2 b 42 38 43 12 42 22 l 42 119 b 48 141 42 131 44 138 b 79 146 52 144 63 146 l 149 146 b 187 152 169 146 182 148 b 194 179 192 156 194 165 l 194 843 b 188 887 194 866 192 881 b 156 896 183 893 172 896 l 88 896 b 49 901 66 896 53 898 b 42 931 44 905 42 915 l 42 1007 b 49 1036 42 1022 44 1031 b 71 1043 53 1041 61 1043 b 88 1042 74 1043 79 1043 b 110 1042 97 1042 104 1042 l 572 1042 b 607 1034 588 1042 600 1039 b 618 1000 614 1029 618 1018 l 618 938 b 613 902 618 918 616 906 b 586 896 609 898 600 896 l 493 896 b 458 891 474 896 462 894 b 451 865 453 888 451 879 "},"I":{"ha":688,"x_min":0,"x_max":0,"o":"m 465 190 b 471 151 465 168 467 155 b 510 146 475 148 488 146 l 613 146 b 640 140 626 146 636 144 b 647 121 645 137 647 130 b 647 107 647 118 647 113 b 646 90 646 100 646 95 l 646 40 b 641 6 646 22 644 10 b 615 0 638 2 629 0 l 96 0 b 49 8 69 0 53 3 b 42 60 44 14 42 31 l 42 118 b 45 141 42 130 43 138 b 61 146 47 144 53 146 l 171 146 b 202 153 187 146 197 148 b 210 175 207 157 210 165 b 209 191 210 178 209 183 b 208 210 209 199 208 205 l 208 851 b 202 888 208 871 206 883 b 176 896 198 893 189 896 l 86 896 b 47 902 64 896 51 898 b 42 943 44 906 42 920 l 42 1004 b 49 1035 42 1021 44 1031 b 90 1042 54 1040 68 1042 l 590 1042 b 606 1042 595 1042 600 1042 b 619 1043 612 1043 617 1043 b 640 1036 629 1043 635 1041 b 646 1007 644 1031 646 1022 l 646 935 b 641 902 646 917 644 906 b 615 896 638 898 629 896 l 507 896 b 472 890 488 896 477 894 b 465 867 468 887 465 879 "},"J":{"ha":925,"x_min":0,"x_max":0,"o":"m 222 167 b 251 125 222 153 232 139 b 328 104 270 111 295 104 b 440 153 380 104 417 121 b 474 333 462 186 474 246 l 474 851 b 467 890 474 873 471 885 b 424 896 462 894 448 896 l 351 896 b 315 902 332 896 320 898 b 307 929 309 906 307 915 l 307 1004 b 312 1036 307 1022 309 1032 b 338 1042 315 1040 324 1042 l 871 1042 b 892 1035 882 1042 889 1039 b 897 1004 896 1030 897 1020 l 897 940 b 892 901 897 918 895 905 b 854 896 888 898 875 896 l 785 896 b 740 888 762 896 747 893 b 731 857 734 883 731 873 l 731 375 b 614 86 731 258 692 162 b 328 -28 536 10 441 -28 b 174 -1 269 -28 218 -19 b 71 68 129 16 95 39 b 17 159 47 97 29 127 b 0 257 6 191 0 224 b 50 392 0 312 17 356 b 165 444 83 427 122 444 b 268 408 206 444 240 432 b 310 307 296 383 310 350 b 296 244 310 282 305 261 b 266 209 287 227 277 215 b 236 190 255 203 245 197 b 222 167 227 183 222 175 "},"K":{"ha":1306,"x_min":0,"x_max":0,"o":"m 774 0 b 735 6 751 0 738 2 b 729 46 731 10 729 24 l 729 118 b 736 140 729 129 731 137 b 768 146 741 144 751 146 l 804 146 b 843 157 830 146 843 150 b 839 167 843 160 842 163 b 826 183 836 172 832 177 b 814 199 821 189 817 194 l 647 432 b 608 465 631 454 619 465 b 594 460 604 465 599 464 b 572 440 589 457 581 450 b 549 418 562 430 554 423 l 479 357 b 456 328 467 346 459 336 b 451 282 453 321 451 305 l 451 193 b 460 153 451 171 454 157 b 507 146 465 148 481 146 l 574 146 b 612 140 595 146 608 144 b 618 106 616 137 618 125 l 618 43 b 613 7 618 24 616 12 b 586 0 609 2 600 0 l 85 0 b 49 9 65 0 53 3 b 42 57 44 15 42 31 l 42 88 b 41 105 42 92 41 98 b 40 119 41 112 40 117 b 47 140 40 129 43 135 b 76 146 52 144 62 146 l 146 146 b 186 154 166 146 180 149 b 196 183 193 160 196 169 b 195 202 196 186 196 192 b 194 226 195 212 194 220 l 194 849 b 188 888 194 870 192 883 b 160 896 184 893 175 896 l 96 896 b 49 902 70 896 54 898 b 42 939 44 906 42 919 l 42 999 b 47 1035 42 1019 44 1031 b 81 1042 51 1040 62 1042 l 588 1042 b 613 1035 601 1042 610 1040 b 618 1001 616 1031 618 1020 l 618 940 b 613 903 618 920 616 907 b 585 896 610 898 600 896 l 499 896 b 458 890 476 896 463 894 b 451 860 454 887 451 876 l 451 607 b 464 531 451 556 456 531 b 474 535 467 531 470 532 b 494 553 478 539 485 545 b 515 574 503 562 510 569 l 826 844 b 863 885 850 865 863 878 b 824 896 863 892 850 896 l 753 896 b 727 902 739 896 730 898 b 722 938 724 906 722 918 l 722 985 b 730 1033 722 1010 725 1026 b 763 1043 735 1040 746 1043 b 781 1042 765 1043 771 1043 b 804 1042 790 1042 798 1042 l 1224 1042 b 1245 1035 1235 1042 1242 1039 b 1250 1004 1248 1030 1250 1020 l 1250 935 b 1245 901 1250 915 1248 904 b 1213 896 1242 897 1231 896 l 1160 896 b 1132 894 1150 896 1140 895 b 1110 892 1124 894 1116 893 b 1092 888 1104 892 1098 890 b 1078 883 1085 885 1081 883 b 1065 874 1075 882 1071 879 b 1053 865 1059 869 1055 866 b 1040 854 1052 864 1048 861 b 1026 842 1033 848 1028 844 l 846 682 b 817 639 826 665 817 651 b 820 626 817 635 818 631 b 828 614 822 622 825 618 b 841 597 831 610 835 604 b 856 576 847 589 852 582 l 1140 196 b 1150 183 1143 193 1146 189 b 1158 172 1154 178 1156 174 b 1166 163 1160 169 1163 166 b 1176 155 1169 159 1172 156 b 1188 150 1179 153 1183 152 b 1206 147 1193 148 1199 147 b 1229 146 1212 146 1220 146 l 1296 146 b 1322 140 1310 146 1318 144 b 1326 104 1325 135 1326 124 l 1326 43 b 1321 6 1326 22 1325 9 b 1285 0 1317 2 1305 0 "},"L":{"ha":1056,"x_min":0,"x_max":0,"o":"m 78 896 b 48 903 63 896 53 898 b 40 925 43 907 40 915 b 41 941 40 928 41 933 b 42 961 41 949 42 956 l 42 1011 b 46 1036 42 1024 43 1032 b 64 1042 49 1040 55 1042 l 596 1042 b 627 1037 613 1042 624 1040 b 632 1003 630 1034 632 1022 l 632 942 b 625 902 632 919 630 906 b 581 896 620 898 606 896 l 508 896 b 461 887 484 896 469 893 b 450 853 454 881 450 869 b 451 831 450 849 450 842 b 451 803 451 819 451 810 l 451 256 b 451 225 451 247 451 237 b 450 201 450 213 450 205 b 465 156 450 178 455 163 b 531 146 474 149 496 146 l 611 146 b 803 198 693 146 757 163 b 886 381 850 233 878 294 b 888 397 887 385 888 391 l 888 411 b 889 421 888 414 888 417 b 893 428 890 425 891 427 b 900 433 895 430 897 431 b 912 437 903 435 907 436 b 931 438 917 437 923 438 l 978 438 b 1008 431 993 438 1003 435 b 1015 408 1013 426 1015 419 b 1015 392 1015 406 1015 400 b 1014 372 1014 384 1014 378 l 1014 44 b 1007 7 1014 25 1012 13 b 981 -1 1002 1 994 -1 b 965 -1 978 -1 972 -1 b 944 0 957 0 950 0 l 74 0 b 47 8 60 0 51 3 b 42 44 44 13 42 25 l 42 114 b 49 140 42 128 44 137 b 86 146 54 144 67 146 l 139 146 b 185 153 163 146 178 148 b 194 186 191 159 194 169 l 194 858 b 188 891 194 877 192 888 b 150 896 184 894 171 896 "}}}
